<svg xmlns="http://www.w3.org/2000/svg" viewBox="0 0 102 70"><g fill="none" fill-rule="evenodd"><path fill="#FFF" d="M100.07 9.96h-2.6V6.36l-1.32-.07-.7-.04c-2.52-.1-3.75-.32-6.92-1.17-.85-.24-2-.6-3.34-1C80.4 2.6 73.85.6 69.5.6 61.65.62 55.4 3.1 50.96 8 46.5 3.1 40.26.62 32.4.62c-4.35 0-10.9 2-15.67 3.47-1.3.4-2.5.76-3.35 1-3.17.84-4.4 1.05-6.9 1.16l-.72.03-1.32.05v3.62H.46V69.3l1.33.04 2.43.08h.82c5.27 0 10.58-1.6 15.72-3.16 4.33-1.3 8.4-2.55 11.64-2.55H32.57l.75-.02c6.7 0 10.92 3.3 12.85 5.27l.4.42h8.81l.4-.43C57.7 67 61.92 63.7 68.6 63.7l.75.02h.16c3.24 0 7.32 1.25 11.63 2.56 5.15 1.56 10.46 3.17 15.73 3.17h.82l2.44-.1 1.34-.03V9.96h-1.4z"/><path fill="#000" d="M97.6 65.27h-.76c-4.73 0-9.78-1.54-14.67-3.02-4.58-1.4-8.9-2.7-12.67-2.7h-.02c-4.7-.18-8.48 1.06-11.32 2.62-2.03 1.1-4.05 2.4-5.14 3.46h-1.14c1.12-1.27 2.64-3.23 5.54-4.8 3.03-1.67 7.04-2.96 12.1-2.8 3.98.02 8.4 1.36 13.1 2.8 4.5 1.36 9.17 2.78 13.48 2.93v-49.8h1.5v51.3zM33.3 56.32c-.32 0-.64 0-.97.02-4.3 0-8.86 1.4-13.7 2.87-3.8 1.17-7.73 2.36-11.34 2.74V9.1c2.3-.13 3.8-.4 6.83-1.23.9-.24 2.07-.6 3.44-1.02C21.9 5.5 28.47 3.5 32.4 3.5c7.38 0 13.1 2.4 17.03 7.14.1.12.4.46.62.77v.02c.18.24.47.67.9 1.43.45-.76.73-1.2.9-1.43.23-.32.53-.66.63-.78C56.4 5.9 62.13 3.5 69.5 3.5c3.93 0 10.5 2 14.84 3.35 1.37.42 2.54.78 3.44 1.02 3.04.82 4.54 1.1 6.8 1.23v4.6h.02v48.24c-3.6-.38-7.53-1.57-11.35-2.73-4.83-1.46-9.4-2.85-13.7-2.86-9.33-.32-15.47 4.02-18.6 7.06-3-2.93-8.83-7.08-17.63-7.08zm15.54 9.3c-1.1-1.05-3.08-2.34-5.1-3.45-2.85-1.56-6.62-2.8-11.33-2.63h-.02c-3.76 0-8.08 1.32-12.66 2.7-4.9 1.5-9.94 3.03-14.67 3.03h-.75v-51.3h1.5v49.8c4.3-.16 8.97-1.58 13.48-2.95 4.7-1.43 9.1-2.77 13.1-2.78 5.05-.17 9.06 1.12 12.1 2.78 2.9 1.58 4.98 3.95 5.46 4.8h-1.1zM96.1 11.35V7.67l-.72-.03c-2.6-.1-3.95-.34-7.2-1.22-.88-.23-2.05-.6-3.4-1C80.08 3.97 73.66 2 69.5 2c-7.84 0-13.95 2.58-18.17 7.68l-.38.45-.37-.45C46.36 4.58 40.25 2 32.4 2c-4.15 0-10.58 1.97-15.27 3.42-1.35.4-2.52.77-3.4 1-3.25.88-4.6 1.1-7.2 1.22l-.7.03v3.67h-4v56.64l2.45.08c5.3.17 10.78-1.5 16.1-3.1 4.4-1.35 8.58-2.6 12.03-2.6l.1-.02c7.63-.27 12.44 3.42 14.64 5.66h7.64c2.2-2.24 7-5.93 14.62-5.66h.1c3.45 0 7.62 1.27 12.04 2.62 5.3 1.6 10.8 3.27 16.1 3.1l2.43-.08V11.34H96.1z"/><path fill="#1C1C1B" d="M32.4 28.34c-3.92 0-8.3 1.34-12.97 2.75-.03 0-.07 0-.1.03v.6l.27-.08c4.6-1.4 8.97-2.73 12.82-2.73 3.77-.14 6.94.6 9.52 1.68v-.63c-2.6-1.05-5.8-1.76-9.54-1.63M89.38 11.8v.6l1.8.4v20.64c-2.88-.58-5.84-1.48-8.7-2.35-4.44-1.35-8.63-2.63-12.4-2.74l.56.6c3.55.22 7.5 1.42 11.67 2.7 2.93.87 5.94 1.8 8.88 2.37v22.2l.53.22.06.02V12.32l-.24-.05c-.75-.14-1.52-.3-2.28-.5l.08.02h.06zM83.14 55.2l-.03-.02c-.22-.23-.47-.5-.73-.8-4.6-1.42-8.98-2.74-12.86-2.74h-1.78v.58h1.78c3.84 0 8.2 1.33 12.8 2.73l.84.25zM68.68 7.67h.82c3.4 0 7.24 1.06 11.3 2.28v-.6c-4.04-1.2-7.85-2.24-11.3-2.24h-.82c-.33 0-.65 0-.98.02v.57c.33-.02.65-.03.98-.03M54.2 56.22l.02-.02s.23-.18.55-.5v-22c.9-.72 1.96-1.47 3.23-2.15v-.65c-1.25.65-2.32 1.36-3.23 2.06V13.93l-.2.18-.24.23-.14.1v41.8zM29.37 7.5c.76 0 1.66.06 2.64.2l.4-.02h.83c5.42 0 9.85 1.9 13.9 6.05v9.7c.25 1.16.44 2.4.58 3.75v-13.7l-.07-.07c-4.14-4.24-8.85-6.3-14.4-6.3h-.83c-1.4 0-2.9.18-4.42.47l.76-.05h.63M10.15 56.58l.04-.02s.2-.13.53-.38V34.02c1.1-.2 2.2-.47 3.32-.77v-.6c-1.12.3-2.23.57-3.32.8v-20.1c-.3.04-.47.1-.47.1l-.1.03v43.1zM47.7 56.85V36c-.12.96-.32 1.88-.56 2.77v17.5c-2.87-2.2-7.48-4.64-13.83-4.64h-.2c-.83.23-1.7.43-2.62.6-.62.1-1.2.22-1.77.33 1.3-.2 2.53-.34 3.7-.34h.9c6.55 0 11.2 2.64 13.94 4.86l.35.27.12.1v-.6z"/><path fill="#E00612" d="M30.75 49.3c-3.78 1.2-6.2 1.73-7.87 1.73-3.4 0-3.55-2.2-3.55-7.16V12c2.52-1.2 5.38-1.84 8.04-1.84 2.83 0 6.86.75 9.96 4.3 2.96 3.38 4.5 8.6 4.6 15.5v.7c0 7.45-4.18 16.46-11.18 18.65M47.7 27.2c-.13-1.34-.32-2.6-.56-3.75C44.66 11.53 37.16 8.4 32 7.7c-.97-.14-1.87-.2-2.63-.2l-.63.02c-.25 0-.5.03-.76.05-2.65.24-5.78 1.28-8.12 2.06-.55.2-1.06.36-1.5.5l-.27.08c-1.15.37-2.53.8-4.02 1.2-.35.1-.7.2-1.06.28l-.1.03c-.84.22-1.7.4-2.54.57l-.23.05v1.15l.1-.03s.2-.05.48-.08c.14-.02.32-.04.5-.04 1.3 0 2.82.6 2.82 3.48v33.32c0 3.16-2.26 5.26-3.32 6.06-.32.25-.53.37-.54.38l-.05.02v.9h.1c1.4-.26 3.57-.84 5.6-1.42l.66-.2 3.1-.9c3.2-.98 6.25-1.9 9.1-2.4l1.78-.34c.9-.16 1.8-.36 2.63-.6 7.47-2 12.23-6.37 14.04-12.85.25-.9.44-1.8.57-2.78.18-1.2.27-2.42.27-3.7 0-1.84-.1-3.54-.26-5.12M91.7 56.45l-.52-.23c-3.27-1.6-6.27-6.46-9.72-12.03-3.04-4.92-6.42-10.4-10.82-15.24l-.56-.6c-.47-.5-.93-1-1.42-1.47 2.34-2.5 5.8-6 11.77-10.88.3-.26.63-.5.9-.7 2.52-1.85 4.84-2.87 6.53-2.87h.25c.3 0 .96.1 1.2.15h.08v-.8h-.06c-.03 0-.05-.02-.08-.03-2.26-.54-4.54-1.24-6.76-1.9l-1.7-.52v.8l.07.03c.93.3 1.06.44 1.18.88.1.37-.18 1.04-.83 1.5-8.74 5.9-16.7 14.93-17.9 16.37v-14.5c0-2.4.5-5.32 4.34-6.4L67.7 8V7.12c-5.13.23-9.53 2.3-13.43 6.3l-.05.05-.03.02v.93l.13-.1.24-.22.2-.17c.46-.42 1.15-1 1.77-1 .97 0 1.45 1.42 1.45 4.2v32.22c0 2.84-2.2 5.32-3.23 6.35-.33.32-.54.5-.55.5l-.03.02v1.23l.12-.1.34-.27c2.6-2.1 6.9-4.6 12.9-4.85h.16V51.34h-.08c-1.53.02-2.67-.5-3.42-1.58-.77-1.1-.93-2.48-.93-3.45v-13.5l1.4-1.6c2.9 1.43 5.48 5.24 8.44 9.64.55.8 1.1 1.63 1.68 2.46.8 1.2 1.7 2.53 2.6 3.94 1.75 2.68 3.55 5.43 4.95 7.1.26.3.5.6.74.82l.04.02.17.05c2.7.8 5.43 1.6 8.12 2.12l.34.07v-.97l-.05-.02z"/></g></svg>
