<svg xmlns="http://www.w3.org/2000/svg" viewBox="0 0 73.918 42.709"><path fill="#1c1c1b" d="M27.386 41.584c-1.88 0-3.084-1.445-3.084-3.598 0-2.168 1.204-3.597 3.084-3.597 1.896 0 3.101 1.445 3.101 3.597 0 2.153-1.205 3.598-3.101 3.598zm0-7.838c-2.361 0-3.887 1.719-3.887 4.24 0 2.506 1.526 4.241 3.871 4.241 2.362 0 3.904-1.735 3.904-4.241 0-2.521-1.542-4.24-3.888-4.24zm-6.168-2.248l2.361-.178v-.498h-5.588v.498l2.377.16v4.338h-6.265V31.48l2.378-.16v-.498h-5.59v.498l2.345.178v9.75l-2.345.16v.498h5.59v-.498l-2.378-.16v-4.787h6.265v4.787l-2.377.16v.498h5.588v-.498l-2.361-.16v-9.75zM0 42.709h.643V0H0v42.709zM14.087 1.445h3.566a2.365 2.365 0 0 1 2.537 2.522 2.388 2.388 0 0 1-2.408 2.683h-3.695V1.445zm2.49 9.943l-2.49-.161V7.292h3.807a3.0443 3.0443 0 0 0 3.147-3.309 3.0133 3.0133 0 0 0-3.227-3.18h-6.923v.498l2.329.176v9.75l-2.329.161v.498h5.686v-.498zm14.745 15.034v.467h4.544v-.451l-1.83-.161v-4.914a3.727 3.727 0 0 1 3.084-1.928 1.877 1.877 0 0 1 1.976 2.104v4.738l-1.863.161v.451h4.385v-.467l-1.719-.16v-4.803a2.427 2.427 0 0 0-2.617-2.714 3.979 3.979 0 0 0-3.262 1.814V18.84l-.449-.127A3.3056 3.3056 0 0 1 31 19.756v.337a3.608 3.608 0 0 0 2.233-.192v6.361zm-17.235-9.959h3.742a2.3642 2.3642 0 0 1 2.602 2.442 2.3472 2.3472 0 0 1-2.569 2.538h-3.775v-4.98zm2.49 9.928l-2.49-.162v-4.128h3.308l2.346 4.788h2.939v-.498l-2.394-.243-1.991-4.047a3.0183 3.0183 0 0 0 2.987-3.196 2.976 2.976 0 0 0-3.18-3.084h-7.211v.498l2.345.177v9.733l-2.345.162v.498h5.686v-.498zM72.2 11.259V6.457a2.4404 2.4404 0 0 0-2.618-2.731 3.9526 3.9526 0 0 0-3.246 1.831V3.823l-.449-.129a3.2403 3.2403 0 0 1-2.57 1.044v.354a3.6107 3.6107 0 0 0 2.232-.194v6.361l-1.911.161v.466h4.546v-.45l-1.831-.161V6.36a3.7363 3.7363 0 0 1 3.068-1.943 1.8878 1.8878 0 0 1 1.975 2.12v4.738l-1.862.161v.45h4.384v-.466zM45.793 37.553c-1.043-.256-2.359-.612-2.359-1.75 0-.756.545-1.43 1.927-1.43a2.5643 2.5643 0 0 1 2.458 1.557l.512.9.402-.08-.514-3.035h-.435l-.014 1.332a2.804 2.804 0 0 0-2.522-1.301c-1.607 0-2.571.899-2.571 2.072 0 1.621 1.848 2.12 2.957 2.409 1.51.386 2.537.755 2.537 1.847 0 .965-.819 1.543-2.055 1.543-1.287 0-2.088-.642-2.875-1.928l-.5-.82-.416.082.529 3.131h.449l-.047-1.51a3.2314 3.2314 0 0 0 2.956 1.655c1.639 0 2.714-.868 2.714-2.217 0-1.559-1.365-2.008-3.133-2.457zm26.375-16.158c0-1.463-.611-2.65-2.313-2.65a3.5088 3.5088 0 0 0-3.005 1.75 2.0718 2.0718 0 0 0-2.198-1.75 3.682 3.682 0 0 0-2.942 1.766V18.84l-.449-.127a3.3458 3.3458 0 0 1-2.569 1.043v.337a3.6142 3.6142 0 0 0 2.233-.209v6.378l-1.911.16v.467h4.191v-.451l-1.477-.161v-4.995a3.3436 3.3436 0 0 1 2.73-1.847c1.284 0 1.701.867 1.701 2.185v4.657l-1.573.161v.451h3.967v-.451l-1.589-.161v-4.754a2.1222 2.1222 0 0 0-.017-.321 3.1445 3.1445 0 0 1 2.699-1.767c1.301 0 1.717.884 1.717 2.168v4.674l-1.459.161v.451h4.014v-.451l-1.75-.176v-4.867zm-13.83-9.975v.466h4.578v-.466l-1.863-.161v-7.42l-.45-.145a3.3654 3.3654 0 0 1-2.585 1.044v.354a3.632 3.632 0 0 0 2.232-.21v6.377zM50.95 37.217a2.9373 2.9373 0 0 1 2.907-2.828 2.627 2.627 0 0 1 2.667 2.828H50.95zm2.922-3.471c-2.264 0-3.756 1.734-3.756 4.24s1.509 4.241 3.902 4.241a2.9942 2.9942 0 0 0 3.164-2.055l-.497-.178a2.5364 2.5364 0 0 1-2.572 1.59c-2.023 0-3.212-1.396-3.212-3.582v-.16h6.378c.016-.112.016-.369.016-.514a3.3657 3.3657 0 0 0-3.423-3.582zm.578-7.18c-1.878 0-3.083-1.445-3.083-3.597 0-2.17 1.205-3.582 3.083-3.582 1.897 0 3.101 1.429 3.101 3.582 0 2.152-1.204 3.597-3.101 3.597zm0-7.821c-2.36 0-3.887 1.702-3.887 4.224 0 2.506 1.527 4.24 3.873 4.24 2.36 0 3.902-1.734 3.902-4.24 0-2.522-1.542-4.224-3.888-4.224zM40.06 33.844l-.449-.129a3.3674 3.3674 0 0 1-2.587 1.043v.353a3.5628 3.5628 0 0 0 2.217-.193v4.771a3.8135 3.8135 0 0 1-3.084 1.864 1.881 1.881 0 0 1-1.96-2.104v-5.605l-.433-.129a2.907 2.907 0 0 1-2.361 1.043v.353a3.2116 3.2116 0 0 0 1.991-.144v4.529a2.4432 2.4432 0 0 0 2.634 2.731 3.928 3.928 0 0 0 3.228-1.784l.017 1.623.048.034 2.504-.243v-.433H40.06v-7.58zm9.043-28.897v4.53a2.4425 2.4425 0 0 0 2.634 2.73 3.9332 3.9332 0 0 0 3.228-1.784l.017 1.623.047.033 2.507-.241v-.434h-1.767V3.823l-.449-.129a3.371 3.371 0 0 1-2.587 1.044v.354a3.5772 3.5772 0 0 0 2.217-.194v4.771a3.814 3.814 0 0 1-3.085 1.863 1.881 1.881 0 0 1-1.96-2.104V3.823l-.433-.129a2.9046 2.9046 0 0 1-2.36 1.044v.354a3.2278 3.2278 0 0 0 1.991-.145zm-17.958-.049v6.361l-1.912.161v.466h4.546v-.45l-1.832-.161V6.36a3.7458 3.7458 0 0 1 3.085-1.943 1.889 1.889 0 0 1 1.976 2.12v4.738l-1.863.161v.45h4.385v-.466l-1.719-.161V6.457a2.4392 2.4392 0 0 0-2.617-2.731 3.9544 3.9544 0 0 0-3.262 1.831V3.823l-.45-.129a3.2402 3.2402 0 0 1-2.57 1.044v.354a3.6166 3.6166 0 0 0 2.233-.194zm16.897 19.87a2.6638 2.6638 0 0 1-2.633 1.798c-1.816 0-2.891-1.38-2.891-3.566 0-2.136 1.203-3.613 3.052-3.613a2.721 2.721 0 0 1 2.472 1.446v3.935zm-2.569-6.023c-2.249 0-3.759 1.75-3.759 4.288 0 2.49 1.333 4.176 3.566 4.176a3.055 3.055 0 0 0 2.779-1.543l.016 1.383.047.031 2.537-.24v-.434h-1.813V14.841l-.434-.128a3.122 3.122 0 0 1-2.554 1.365v.353a2.9638 2.9638 0 0 0 2.184-.367v3.917a3.0788 3.0788 0 0 0-2.569-1.236zm-3.229-7.02l1.607.145c1.878.169 2.456.706 2.456 1.414 0 .979-.995 1.734-3.004 1.734-1.798 0-2.826-.723-2.826-1.687a1.8146 1.8146 0 0 1 1.767-1.606zM40.927 6.73a2.409 2.409 0 0 1 4.818.032 2.3084 2.3084 0 0 1-2.424 2.345 2.3653 2.3653 0 0 1-2.394-2.377zm-1.189 6.65c0 1.237 1.173 2.264 3.55 2.264 2.49 0 3.791-1.044 3.791-2.425 0-1.526-1.783-1.93-3.534-2.072-1.301-.112-2.507-.161-2.507-.803 0-.321.323-.627 1.751-.627h.532a2.9657 2.9657 0 0 0 3.163-3.019 2.9487 2.9487 0 0 0-.786-2.024c.112-1.461 1.396-.739 1.396-1.494a.449.449 0 0 0-.514-.482 1.6093 1.6093 0 0 0-1.397 1.542 3.1386 3.1386 0 0 0-1.766-.514 2.993 2.993 0 0 0-3.228 2.972A2.8713 2.8713 0 0 0 41.682 9.3a1.23 1.23 0 0 0-1.334 1.14 1.1934 1.1934 0 0 0 .996 1.092 2.0135 2.0135 0 0 0-1.606 1.848zM28.319 25.266a4.1102 4.1102 0 0 1-2.86 1.3 1.486 1.486 0 0 1-1.735-1.365c0-1.14.98-2.201 4.595-2.265v2.33zm-5.382-.065c0 1.205.93 2.008 2.394 2.008a4.3566 4.3566 0 0 0 3.035-1.301 1.2524 1.2524 0 0 0 1.334 1.059 1.3427 1.3427 0 0 0 1.413-1.237l-.369-.16a.8282.8282 0 0 1-.803.772c-.562 0-.82-.289-.82-1.317v-3.486c0-1.607-.658-2.794-2.794-2.794a3.4477 3.4477 0 0 0-2.474.818 1.4784 1.4784 0 0 0-.562.996.4516.4516 0 0 0 .482.466c.384 0 .432-.369.658-.787a1.7776 1.7776 0 0 1 1.832-.851 1.8603 1.8603 0 0 1 2.056 2.072v.899c-3.439.032-5.382 1.011-5.382 2.843zM60.619 2.104a.699.699 0 0 0 .706-.691.698.698 0 0 0-.706-.69.6905.6905 0 1 0 0 1.381zM25.025 4.368a2.626 2.626 0 0 1 2.666 2.827h-5.573a2.937 2.937 0 0 1 2.907-2.827zm.161 7.839a2.995 2.995 0 0 0 3.165-2.056l-.499-.177a2.5316 2.5316 0 0 1-2.57 1.59c-2.023 0-3.212-1.397-3.212-3.582v-.16h6.378c.015-.112.015-.369.015-.514a3.3655 3.3655 0 0 0-3.422-3.582c-2.264 0-3.759 1.734-3.759 4.24s1.51 4.241 3.904 4.241z"/></svg>
