<?xml version="1.0" standalone="no"?>
<!DOCTYPE svg PUBLIC "-//W3C//DTD SVG 20010904//EN"
 "http://www.w3.org/TR/2001/REC-SVG-20010904/DTD/svg10.dtd">
<svg version="1.0" xmlns="http://www.w3.org/2000/svg"
 width="816.000000pt" height="816.000000pt" viewBox="0 0 816.000000 816.000000"
 preserveAspectRatio="xMidYMid meet">
<g transform="translate(0.000000,816.000000) scale(0.100000,-0.100000)"
fill="#000000" stroke="none">
<path d="M2455 6713 c-252 -32 -523 -97 -990 -238 -514 -155 -665 -189 -882
-202 l-112 -6 -3 -146 -3 -146 -157 -3 -158 -3 0 -2263 0 -2263 133 -6 c367
-15 639 35 1355 249 330 98 502 144 662 176 100 20 145 23 350 23 209 0 246
-3 338 -23 280 -63 504 -174 707 -352 l80 -70 304 0 303 0 55 50 c236 216 528
350 846 390 63 8 166 11 290 7 270 -7 365 -28 1012 -221 637 -191 957 -246
1300 -228 l120 7 3 2263 2 2262 -160 0 -159 0 -3 148 -3 147 -105 7 c-220 14
-405 55 -825 183 -531 161 -756 217 -1008 250 -352 47 -803 -27 -1113 -183
-171 -86 -277 -163 -425 -312 l-137 -136 -53 64 c-234 276 -607 479 -1004 546
-180 31 -443 44 -560 29z m361 -124 c230 -22 457 -82 639 -169 224 -107 440
-293 573 -493 43 -63 48 -68 59 -51 123 178 281 341 423 435 280 186 646 289
1031 289 208 0 523 -64 964 -195 706 -211 726 -216 1023 -251 l42 -5 0 -2110
0 -2109 -27 0 c-39 0 -187 26 -318 56 -136 31 -289 74 -610 171 -538 162 -742
203 -1046 210 -227 6 -346 -4 -529 -43 -332 -71 -660 -239 -901 -460 -54 -49
-63 -54 -77 -42 -9 8 -46 40 -82 72 -162 144 -439 301 -665 375 -242 80 -434
106 -740 98 -304 -7 -488 -44 -1044 -212 -479 -144 -730 -207 -887 -222 l-64
-6 0 2111 0 2111 43 5 c277 33 368 54 847 198 489 146 745 209 995 241 64 8
247 6 351 -4z m-2354 -2816 l3 -1988 80 3 c197 6 443 61 986 223 642 191 806
223 1124 223 219 -1 321 -14 510 -64 313 -83 603 -256 770 -461 30 -36 55 -69
55 -73 0 -3 -18 -6 -40 -6 -33 0 -50 8 -94 44 -166 135 -463 298 -656 359
-192 61 -324 81 -550 81 -301 0 -473 -34 -1070 -213 -184 -55 -387 -113 -450
-130 -266 -71 -547 -114 -700 -109 l-85 3 -3 2035 c-1 1119 0 2041 3 2048 3 7
25 12 60 12 l55 0 2 -1987z m7348 -63 l0 -2050 -94 0 c-264 0 -546 61 -1226
265 -300 90 -534 148 -680 169 -316 45 -599 23 -875 -66 -179 -58 -484 -226
-637 -351 -47 -39 -65 -47 -98 -47 -22 0 -40 4 -40 9 0 23 241 251 320 303
390 258 880 351 1394 263 176 -30 328 -69 716 -185 504 -152 788 -217 1018
-236 l82 -7 0 1992 0 1991 60 0 60 0 0 -2050z"/>
<path d="M2380 6295 c-52 -8 -133 -20 -180 -26 -122 -16 -349 -76 -618 -163
-341 -111 -480 -150 -749 -211 l-23 -5 0 -1805 0 -1805 23 5 c12 2 54 12 92
20 103 23 293 76 630 175 688 204 807 226 1150 217 231 -6 352 -25 536 -87
134 -44 338 -149 449 -230 52 -38 103 -75 113 -80 17 -11 18 27 17 852 -1 577
3 909 11 1002 8 105 8 185 0 335 -7 111 -12 436 -11 752 l1 556 -86 82 c-218
206 -472 340 -760 401 -133 28 -455 36 -595 15z m410 -35 c142 -12 197 -23
325 -62 195 -59 380 -166 555 -320 l95 -84 2 -384 2 -385 -35 124 c-135 485
-387 813 -759 991 -81 39 -247 93 -320 106 -22 4 -47 10 -55 15 -21 12 48 11
190 -1z m-455 -200 c255 -37 443 -126 606 -289 204 -204 330 -501 389 -911 11
-77 29 -362 24 -369 -2 -2 -47 11 -101 28 -238 75 -393 96 -672 88 -263 -7
-462 -46 -896 -176 -71 -21 -133 -37 -137 -34 -10 6 -10 1504 0 1519 10 16
171 77 271 103 167 45 373 61 516 41z m-1306 -284 c24 -17 50 -47 63 -75 l23
-46 0 -695 0 -695 -105 -27 c-58 -14 -115 -27 -127 -27 l-23 -1 0 801 0 801
64 -4 c50 -3 73 -10 105 -32z m1961 -1236 c63 -12 171 -40 240 -63 l125 -42
-3 -85 c-13 -336 -139 -709 -331 -980 -75 -106 -227 -256 -325 -321 -104 -68
-185 -101 -401 -164 -277 -79 -471 -104 -580 -74 -55 15 -116 81 -139 149 -25
77 -37 424 -34 959 l3 424 145 43 c317 96 572 155 752 174 136 14 417 4 548
-20z m-1870 -1041 l0 -720 -25 -76 c-30 -88 -77 -166 -148 -240 -97 -103 -87
-193 -87 811 l0 884 123 30 c67 16 125 30 130 31 4 0 7 -323 7 -720z m2650
-429 l0 -690 -97 66 c-258 172 -535 267 -867 296 l-139 12 113 38 c141 47 311
128 426 204 111 72 302 260 373 367 62 93 133 236 163 329 12 37 23 68 25 68
2 0 3 -310 3 -690z"/>
<path d="M5335 6303 c-366 -45 -622 -163 -910 -419 l-85 -75 0 -1755 c0 -965
2 -1754 5 -1754 3 0 41 27 86 60 259 192 571 310 889 337 52 4 176 5 275 2
245 -9 446 -50 855 -174 382 -115 827 -235 878 -235 10 0 12 364 10 1802 l-3
1803 -45 9 c-109 21 -378 94 -655 176 -512 152 -688 195 -901 220 -84 9 -333
11 -399 3z m355 -43 c63 -6 180 -24 260 -40 171 -35 498 -126 520 -145 8 -7
25 -16 36 -19 32 -10 57 -43 57 -75 0 -45 -36 -85 -158 -171 -331 -233 -765
-620 -1101 -982 -88 -95 -180 -193 -203 -218 l-41 -45 3 650 c3 620 4 653 23
716 42 135 112 216 242 277 42 20 81 42 85 49 10 16 114 17 277 3z m1555 -392
l50 -13 3 -824 2 -824 -42 7 c-70 11 -300 71 -503 131 -453 135 -567 168 -680
195 -145 34 -282 57 -392 66 l-83 7 -50 53 c-27 29 -50 58 -50 64 0 7 60 73
133 147 288 294 759 706 953 836 128 84 274 150 374 167 61 10 223 3 285 -12z
m-2676 -44 c64 -54 65 -58 69 -775 l3 -646 -32 -13 c-17 -8 -74 -42 -126 -77
-52 -35 -97 -63 -99 -63 -2 0 -4 341 -4 758 0 854 -9 766 80 816 56 32 71 32
109 0z m1285 -1284 c148 -25 357 -79 661 -170 321 -96 538 -157 659 -184 57
-13 109 -27 115 -30 8 -5 11 -259 11 -887 0 -724 -2 -879 -13 -879 -23 0 -108
61 -181 130 -143 134 -274 319 -606 850 -335 537 -561 861 -759 1088 -44 52
-81 96 -81 98 0 9 81 3 194 -16z m-607 -199 c77 -52 239 -220 334 -346 102
-135 287 -406 607 -887 147 -222 296 -440 331 -486 34 -46 61 -85 59 -86 -1
-1 -97 25 -213 60 -358 106 -542 141 -797 151 -87 3 -158 9 -158 13 0 4 -26
11 -57 15 -151 18 -252 120 -283 285 -6 31 -10 281 -10 624 l0 571 53 62 c28
35 57 63 63 63 7 0 38 -18 71 -39z m-607 -723 c0 -812 1 -799 -65 -930 -45
-89 -82 -143 -145 -210 l-49 -53 -1 881 0 881 62 44 c77 54 180 119 191 119 4
0 7 -330 7 -732z"/>
</g>
</svg>
