<svg xmlns="http://www.w3.org/2000/svg" viewBox="0 0 20 8.33"><path d="M20 3.72v.9a17.83 17.83 0 0 1-.12 1.9 2.55 2.55 0 0 1-.47 1.2 1.7 1.7 0 0 1-1.2.5c-1.66.1-4.16.1-4.16.1s-3.1-.02-4.05-.1a2.03 2.03 0 0 1-1.33-.5 2.55 2.55 0 0 1-.47-1.2 17.8 17.8 0 0 1-.12-1.9v-.9A17.8 17.8 0 0 1 8.2 1.8 2.55 2.55 0 0 1 8.67.62a1.7 1.7 0 0 1 1.2-.5C11.54 0 14.04 0 14.04 0s2.5 0 4.17.12a1.7 1.7 0 0 1 1.2.5 2.55 2.55 0 0 1 .48 1.18A17.83 17.83 0 0 1 20 3.72zm-6.43-.96h-.76V5.8a.64.64 0 0 1-.42.34.15.15 0 0 1-.17-.15l.02-3.24h-.76V5.9a1.6 1.6 0 0 0 .08.6.48.48 0 0 0 .48.3 1.12 1.12 0 0 0 .8-.5v.44h.75V2.76zm-2.87-.6h.88V1.4H9.06v.76h.84v4.58h.8V2.16zm-3.24.56H6.7V5.8a.64.64 0 0 1-.43.34A.15.15 0 0 1 6.1 6V2.7h-.75v3.2a1.6 1.6 0 0 0 .08.57.48.48 0 0 0 .48.3 1.12 1.12 0 0 0 .8-.5v.44h.76V2.72zM4.8 5.47a1.5 1.5 0 0 1-.23.92 1.07 1.07 0 0 1-.86.4 1.06 1.06 0 0 1-.84-.4 1.48 1.48 0 0 1-.23-.93V4.04a1.6 1.6 0 0 1 .24-.96.96.96 0 0 1 .84-.4 1 1 0 0 1 .85.4 1.6 1.6 0 0 1 .24.95v1.44zm-.77-1.52c.04-.4-.08-.58-.32-.58s-.35.18-.3.58v1.6c-.05.4.08.6.3.6s.37-.2.33-.6zM2.8 1.35h-.84l-.56 2.1-.56-2.1H0c.17.5 1 3.2 1 3.2v2.2h.8v-2.2zM19 4.88v-.8a1.56 1.56 0 0 0-.23-.95 1 1 0 0 0-.86-.42 1.04 1.04 0 0 0-.85.42 1.6 1.6 0 0 0-.24.95v1.4a1.47 1.47 0 0 0 .26.92 1.04 1.04 0 0 0 .87.4 1 1 0 0 0 .88-.44 1.03 1.03 0 0 0 .18-.43 4.53 4.53 0 0 0 .02-.47v-.1h-.76v.5a.3.3 0 0 1-.33.28c-.23 0-.34-.2-.34-.55v-.73H19zm-1.44-1.04c0-.37.1-.47.35-.47.25 0 .34.1.34.48v.43h-.68v-.44zm-1.9-1.14a1.03 1.03 0 0 0-.77.44V1.4h-.73v5.34h.72v-.4a1.03 1.03 0 0 0 .75.45.6.6 0 0 0 .6-.46 3.06 3.06 0 0 0 .08-.8v-1.6a2.8 2.8 0 0 0-.1-.78.58.58 0 0 0-.58-.47zm-.1 2.9c0 .4-.1.54-.3.54a.56.56 0 0 1-.37-.18V3.54a.56.56 0 0 1 .37-.18c.2 0 .3.12.3.5V5.6z"/></svg>
