<svg xmlns="http://www.w3.org/2000/svg" viewBox="0 0 20 16.65"><path fill="#686867" d="M17.64 2.64A4.33 4.33 0 0 0 19.42.32a8.66 8.66 0 0 1-2.62 1.03A3.66 3.66 0 0 0 13.86 0a4.16 4.16 0 0 0-4.1 4.2 6.12 6.12 0 0 0 .1.97A11.55 11.55 0 0 1 1.43.8a4.2 4.2 0 0 0-.58 2.1 4.25 4.25 0 0 0 1.84 3.5 3.5 3.5 0 0 1-1.84-.53v.06a4.14 4.14 0 0 0 3.3 4.1 3.64 3.64 0 0 1-1.1.15 3.85 3.85 0 0 1-.78-.05 4.08 4.08 0 0 0 3.83 2.9 8.04 8.04 0 0 1-5.1 1.8 6.47 6.47 0 0 1-1-.07 11.44 11.44 0 0 0 6.3 1.9c7.5 0 11.65-6.42 11.65-11.97v-.55A8.75 8.75 0 0 0 20 2a8.53 8.53 0 0 1-2.36.64z"/></svg>
