<svg xmlns="http://www.w3.org/2000/svg" viewBox="0 0 20 20"><path fill="#fff" d="M0 12v3l3.3-2h3L0 16.5v.7L7 14v6h1v-8H0M8 0H7v6L0 3v2l3.3 2h-3L0 6.5V8h8V0m12 17.2V15l-3.3-2h3l.3.5V12h-8v8h1v-6l7 3.2M20 8V5l-3.3 2h-3L20 3.5v-.7L13 6V0h-1v8h8"/><path fill="#b0171a" d="M20 12V8h-8V0H8v8H0v4h8v8h4v-8h8"/><path fill="#b0171a" d="M4 7L0 5v1.5L1 7h3m12 0l4-2V3.5L13 7h3m0 6l4 2v-1.5l-1-.5h-3M4 13l-4 2v1.5L7 13H4"/><path fill="#1a335a" d="M0 17.2V20h7v-6l-7 3m13-3v6h7v-2.8L13 14m7-11.2V0h-7v6l7-3M7 0H0v2.8L7 6V0"/></svg>
