<svg xmlns="http://www.w3.org/2000/svg" viewBox="0 0 20 20"><path fill="#686867" d="M10.007 0a10 10 0 0 0-3.644 19.313 9.618 9.618 0 0 1 .035-2.872c.18-.78 1.173-4.97 1.173-4.97a3.607 3.607 0 0 1-.3-1.483c0-1.39.807-2.428 1.81-2.428a1.256 1.256 0 0 1 1.266 1.407 20.182 20.182 0 0 1-.828 3.33 1.452 1.452 0 0 0 1.48 1.806c1.777 0 3.144-1.874 3.144-4.578a3.948 3.948 0 0 0-4.176-4.07 4.33 4.33 0 0 0-4.516 4.34 3.882 3.882 0 0 0 .744 2.282.3.3 0 0 1 .07.287l-.28 1.134c-.043.182-.144.22-.333.134-1.247-.582-2.028-2.408-2.028-3.873 0-3.156 2.29-6.052 6.606-6.052a5.867 5.867 0 0 1 6.164 5.774c0 3.447-2.173 6.22-5.188 6.22a2.675 2.675 0 0 1-2.292-1.15l-.624 2.378a11.156 11.156 0 0 1-1.242 2.622A10 10 0 1 0 10.006 0"/></svg>
