<svg xmlns="http://www.w3.org/2000/svg" viewBox="0 0 20 20"><path d="M10 1.802c2.67 0 2.987.01 4.042.058a5.534 5.534 0 0 1 1.857.345 3.098 3.098 0 0 1 1.144.748 3.098 3.098 0 0 1 .75 1.15 5.534 5.534 0 0 1 .343 1.857c.05 1.054.06 1.37.06 4.04s-.01 2.987-.06 4.042a5.534 5.534 0 0 1-.344 1.857 3.312 3.312 0 0 1-1.898 1.893 5.534 5.534 0 0 1-1.86.344c-1.054.05-1.37.06-4.04.06s-2.987-.01-4.042-.06a5.534 5.534 0 0 1-1.858-.344 3.098 3.098 0 0 1-1.15-.748 3.1 3.1 0 0 1-.745-1.15 5.534 5.534 0 0 1-.343-1.858C1.81 12.985 1.8 12.67 1.8 10s.01-2.988.058-4.043a5.534 5.534 0 0 1 .345-1.86 3.098 3.098 0 0 1 .748-1.15A3.098 3.098 0 0 1 4.1 2.2a5.534 5.534 0 0 1 1.858-.34c1.054-.048 1.37-.058 4.04-.058M10 0C7.286 0 6.945.012 5.878.06A7.34 7.34 0 0 0 3.45.525a4.902 4.902 0 0 0-1.772 1.153A4.902 4.902 0 0 0 .525 3.45 7.34 7.34 0 0 0 .06 5.877C.01 6.944 0 7.285 0 10s.01 3.057.06 4.124a7.34 7.34 0 0 0 .465 2.427 4.902 4.902 0 0 0 1.153 1.777A4.902 4.902 0 0 0 3.45 19.48a7.34 7.34 0 0 0 2.427.464c1.067.05 1.408.06 4.124.06s3.06-.01 4.128-.06a7.34 7.34 0 0 0 2.427-.464 5.114 5.114 0 0 0 2.926-2.926 7.34 7.34 0 0 0 .465-2.426c.05-1.067.06-1.407.06-4.123s-.01-3.056-.06-4.123a7.34 7.34 0 0 0-.464-2.426 4.902 4.902 0 0 0-1.153-1.772A4.902 4.902 0 0 0 16.55.524 7.34 7.34 0 0 0 14.125.06C13.057.012 12.717 0 10 0z"/><path d="M10 4.865A5.135 5.135 0 1 0 15.137 10 5.135 5.135 0 0 0 10 4.866zm0 8.47A3.334 3.334 0 1 1 13.335 10 3.334 3.334 0 0 1 10 13.335zm6.54-8.673a1.2 1.2 0 1 1-1.2-1.2 1.2 1.2 0 0 1 1.2 1.2z"/></svg>
