<svg xmlns="http://www.w3.org/2000/svg" viewBox="0 0 153.93 22.75"><path d="M3 .24a.14.14 0 0 1 .14-.12h.43a.14.14 0 0 1 .14.12l2.84 7.92c.02.08 0 .12-.08.12H6a.14.14 0 0 1-.16-.12l-.72-2H1.56l-.72 2a.16.16 0 0 1-.15.12H.22c-.08 0-.1-.04-.1-.12zM4.9 5.5L3.37 1.22h-.04L1.8 5.5h3.1zm11.74 2.78a.14.14 0 0 1-.13-.12l-1.9-6.68h-.03l-1.92 6.68a.14.14 0 0 1-.13.12h-.4a.14.14 0 0 1-.13-.12L10.05.26a.1.1 0 0 1 .1-.14h.43a.13.13 0 0 1 .15.12l1.6 6.72h.03L14.26.24a.14.14 0 0 1 .15-.12h.37a.14.14 0 0 1 .14.12l1.9 6.72h.04L18.4.24a.14.14 0 0 1 .17-.12H19a.1.1 0 0 1 .1.13l-1.93 7.9a.13.13 0 0 1-.13.13h-.4zm6.5.12a2.84 2.84 0 0 1-1.68-.47 2.62 2.62 0 0 1-.96-1.37 2.33 2.33 0 0 1-.1-.35 4.67 4.67 0 0 1-.08-.46l-.05-.64-.02-.9q0-.53.02-.9l.05-.64a4.35 4.35 0 0 1 .07-.46 2.9 2.9 0 0 1 .1-.36 2.62 2.62 0 0 1 .96-1.37 3.2 3.2 0 0 1 3.34 0 2.62 2.62 0 0 1 .96 1.37l.1.36a3.52 3.52 0 0 1 .08.46q.03.27.04.64.02.37.02.9t-.02.9q0 .37-.04.64a3.76 3.76 0 0 1-.08.47l-.1.36a2.62 2.62 0 0 1-.96 1.37 2.82 2.82 0 0 1-1.66.47zm2.17-4.2v-.85l-.05-.6a2.95 2.95 0 0 0-.07-.43l-.08-.3A1.88 1.88 0 0 0 23.14.66a1.9 1.9 0 0 0-1.98 1.38c-.03.08-.06.17-.08.3a2.8 2.8 0 0 0-.07.4q0 .26-.03.62-.02.36-.02.85 0 .5.02.85l.04.6a2.83 2.83 0 0 0 .08.43c.02.12.05.2.08.3a1.9 1.9 0 0 0 1.98 1.37 1.88 1.88 0 0 0 1.96-1.38l.08-.3a2.97 2.97 0 0 0 .07-.4l.04-.62V4.2zm7.45 4.08a.16.16 0 0 1-.15-.1l-1.7-3.55h-2.22a.06.06 0 0 0-.07.07v3.46a.1.1 0 0 1-.1.12h-.47a.1.1 0 0 1-.12-.12V.24a.1.1 0 0 1 .13-.12h2.74a2.62 2.62 0 0 1 1.83.6 2.12 2.12 0 0 1 .66 1.66 2.2 2.2 0 0 1-.43 1.4 2.15 2.15 0 0 1-1.23.76l1.77 3.6a.1.1 0 0 1 .02.1.08.08 0 0 1-.1.04h-.55zm-2-4.3a1.96 1.96 0 0 0 1.35-.4 1.5 1.5 0 0 0 .47-1.2 1.52 1.52 0 0 0-.47-1.2 1.94 1.94 0 0 0-1.34-.4h-2.08a.06.06 0 0 0-.07.06V3.9a.06.06 0 0 0 .08.08h2.08zM35.3.24a.1.1 0 0 1 .1-.12h.47a.1.1 0 0 1 .12.12v7.32a.06.06 0 0 0 .06.07h4.03a.1.1 0 0 1 .1.12v.4a.1.1 0 0 1-.1.13h-4.7a.1.1 0 0 1-.1-.12V.24zm6.35 0a.1.1 0 0 1 .12-.12h2.56a2.42 2.42 0 0 1 2.6 1.66 3.7 3.7 0 0 1 .1.37 4.45 4.45 0 0 1 .07.46l.05.66v1.88l-.05.65a4.46 4.46 0 0 1-.07.45 3.7 3.7 0 0 1-.1.37 2.42 2.42 0 0 1-2.6 1.66h-2.56a.1.1 0 0 1-.12-.12V.24zm.7 7.32a.06.06 0 0 0 .07.07h1.82a2.6 2.6 0 0 0 1.3-.3 1.62 1.62 0 0 0 .73-.93 3 3 0 0 0 .08-.32 3.82 3.82 0 0 0 .07-.4l.03-.6V4.2v-.87q0-.35-.03-.6a3.8 3.8 0 0 0-.07-.4 2.94 2.94 0 0 0-.08-.33 1.62 1.62 0 0 0-.73-.94 2.6 2.6 0 0 0-1.3-.3h-1.82a.06.06 0 0 0-.07.08v6.72zm12.22.84a2.84 2.84 0 0 1-1.67-.47 2.62 2.62 0 0 1-.97-1.37 2.33 2.33 0 0 1-.1-.35 4.67 4.67 0 0 1-.07-.46l-.05-.64v-.9-.9l.06-.64a4.35 4.35 0 0 1 .07-.46 2.9 2.9 0 0 1 .1-.36A2.62 2.62 0 0 1 52.9.47a3.2 3.2 0 0 1 3.34 0 2.62 2.62 0 0 1 .96 1.37l.1.36a3.52 3.52 0 0 1 .08.46q.03.27.04.64.02.37.02.9t-.02.9q0 .37-.04.64a3.76 3.76 0 0 1-.08.47l-.1.36a2.62 2.62 0 0 1-.96 1.37 2.82 2.82 0 0 1-1.67.47zm2.18-4.2q0-.5-.02-.85l-.04-.6a2.95 2.95 0 0 0-.08-.43l-.08-.3a2.1 2.1 0 0 0-3.95 0c-.03.1-.06.18-.08.3a2.8 2.8 0 0 0-.07.42l-.04.6v1.71l.05.6a2.83 2.83 0 0 0 .07.43l.07.3a2.1 2.1 0 0 0 3.94 0l.08-.3a2.97 2.97 0 0 0 .07-.42q0-.25.03-.6.02-.37.02-.86zm2.6-3.96a.1.1 0 0 1 .12-.12h4.68a.1.1 0 0 1 .12.12v.4a.1.1 0 0 1-.12.13h-4.03a.06.06 0 0 0-.07.07v3a.06.06 0 0 0 .07.06h3.47a.1.1 0 0 1 .1.12v.4a.1.1 0 0 1-.1.13H60.1a.06.06 0 0 0-.07.07v3.54a.1.1 0 0 1-.13.12h-.45a.1.1 0 0 1-.12-.12V.24zm9.56 0a.1.1 0 0 1 .14-.12h.45a.1.1 0 0 1 .1.12v7.92a.1.1 0 0 1-.1.12h-.46a.1.1 0 0 1-.13-.12V.24zm2.95 0a.1.1 0 0 1 .12-.12h2.56a2.42 2.42 0 0 1 2.6 1.66 3.7 3.7 0 0 1 .1.37 4.45 4.45 0 0 1 .08.46q.04.28.05.66v1.88q0 .38-.04.65a4.46 4.46 0 0 1-.06.45 3.7 3.7 0 0 1-.1.37 2.42 2.42 0 0 1-2.6 1.66h-2.57a.1.1 0 0 1-.12-.12V.24zm.7 7.32a.06.06 0 0 0 .07.07h1.82a2.6 2.6 0 0 0 1.3-.3 1.62 1.62 0 0 0 .74-.93 3 3 0 0 0 .08-.32 3.82 3.82 0 0 0 .06-.4l.03-.6q.02-.36.02-.88t-.02-.87q0-.35-.03-.6a3.8 3.8 0 0 0-.06-.4 2.94 2.94 0 0 0-.08-.33 1.62 1.62 0 0 0-.73-.94 2.6 2.6 0 0 0-1.3-.3H72.6a.06.06 0 0 0-.07.08v6.72zM79.3.24a.1.1 0 0 1 .12-.12h4.67a.1.1 0 0 1 .1.12v.4a.1.1 0 0 1-.1.13h-4.04a.06.06 0 0 0-.07.07v2.9a.06.06 0 0 0 .06.08h3.47a.1.1 0 0 1 .12.12v.4a.1.1 0 0 1-.12.12h-3.47a.06.06 0 0 0-.07.08v3.02a.06.06 0 0 0 .06.07h4.03a.1.1 0 0 1 .1.12v.4a.1.1 0 0 1-.1.13H79.4a.1.1 0 0 1-.13-.12V.24zm8.76 0a.14.14 0 0 1 .15-.12h.44a.14.14 0 0 1 .14.12l2.83 7.92q.04.12-.08.12h-.46a.14.14 0 0 1-.15-.12l-.7-2h-3.57l-.72 2a.16.16 0 0 1-.15.12h-.46c-.1 0-.1-.04-.1-.12zm1.9 5.26l-1.53-4.28h-.03L86.85 5.5h3.1zm5.5 2.9a4.1 4.1 0 0 1-.78-.08 4.74 4.74 0 0 1-.75-.2 4.02 4.02 0 0 1-.65-.3 3.8 3.8 0 0 1-.5-.37.1.1 0 0 1-.02-.17l.3-.36a.1.1 0 0 1 .15 0 4.85 4.85 0 0 0 1.03.57 3.28 3.28 0 0 0 1.32.25 2.4 2.4 0 0 0 1.55-.45 1.48 1.48 0 0 0 .57-1.22 1.6 1.6 0 0 0-.1-.55 1.2 1.2 0 0 0-.32-.47 1.85 1.85 0 0 0-.6-.34 4.15 4.15 0 0 0-.94-.22l-.36-.05a3.08 3.08 0 0 1-1.78-.7A1.92 1.92 0 0 1 93 2.28a2.1 2.1 0 0 1 .7-1.7 2.75 2.75 0 0 1 1.87-.6 4.45 4.45 0 0 1 1.3.2 3.37 3.37 0 0 1 1.02.48.1.1 0 0 1 .02.17l-.24.37a.12.12 0 0 1-.17.03 4.4 4.4 0 0 0-.96-.45 3.36 3.36 0 0 0-1-.15 1.96 1.96 0 0 0-1.37.44 1.48 1.48 0 0 0-.5 1.14 1.3 1.3 0 0 0 .45 1.02 2.73 2.73 0 0 0 1.48.53l.37.04a3.15 3.15 0 0 1 1.82.73 1.96 1.96 0 0 1 .56 1.47 2.34 2.34 0 0 1-.2.94 2.12 2.12 0 0 1-.54.75 2.52 2.52 0 0 1-.9.5 4.06 4.06 0 0 1-1.25.17zm4.75-4.8a.1.1 0 0 1-.1-.1v-.82a.1.1 0 0 1 .1-.12h.6a.1.1 0 0 1 .12.12v.8a.1.1 0 0 1-.12.13h-.6zm-.1 3.76a.1.1 0 0 1 .1-.12h.6a.1.1 0 0 1 .12.12v.8a.1.1 0 0 1-.12.12h-.6a.1.1 0 0 1-.1-.12v-.8zM0 21.63l1.08-1.1a2.8 2.8 0 0 0 2.06.73A1.98 1.98 0 0 0 4.27 21a.9.9 0 0 0 .4-.8.94.94 0 0 0-.28-.7 1.4 1.4 0 0 0-.77-.3l-1.03-.16a2.96 2.96 0 0 1-1.65-.7 2.27 2.27 0 0 1-.62-1.68 2.4 2.4 0 0 1 .8-1.88 3.15 3.15 0 0 1 2.18-.7 4.65 4.65 0 0 1 1.57.22 3.33 3.33 0 0 1 1.2.76L5.02 16.1a1.85 1.85 0 0 0-.8-.47 3.58 3.58 0 0 0-.96-.12 1.4 1.4 0 0 0-.97.32 1 1 0 0 0-.35.78.8.8 0 0 0 .25.6 1.43 1.43 0 0 0 .8.35l1 .14a2.9 2.9 0 0 1 1.62.65 2.36 2.36 0 0 1 .67 1.8 2.27 2.27 0 0 1-.9 1.9 3.6 3.6 0 0 1-2.28.7 5.5 5.5 0 0 1-1.77-.25A3.43 3.43 0 0 1 0 21.63zm7.86 1.05v-8.54h5.62v1.5H9.53v2h3.37v1.48H9.53v2.07h3.95v1.48H7.86zm7.26 0v-8.54h5.62v1.5H16.8v2h3.36v1.48H16.8v2.07h3.94v1.48h-5.62zm9.1 0l3.1-8.54h1.32l3.12 8.54h-1.74l-.5-1.52h-3.04l-.52 1.52h-1.74zm2.73-2.92h2.12l-1.04-3.1zm5.86 2.92v-8.54h1.68v7.05h3.88v1.48H32.8zm6.9 0v-8.54h1.68v7.05h3.87v1.48H39.7zm9.05-7.05v-1.5h6.13v1.5h-2.23v7.05h-1.67v-7.05h-2.23zm7.5 7.05v-8.54h1.66v3.48h2.9v-3.48h1.67v8.54H60.8V19.1h-2.9v3.58h-1.66zm8.2 0v-8.54h5.63v1.5h-3.96v2h3.37v1.48H66.1v2.07h3.96v1.48h-5.63zm7.26 0v-8.54h3.36a3 3 0 0 1 1.5.35 2.42 2.42 0 0 1 .95.94 2.66 2.66 0 0 1 .34 1.3 2.27 2.27 0 0 1-.45 1.44 2.45 2.45 0 0 1-1.13.82l1.9 3.68h-1.92l-1.67-3.4h-1.2v3.4H71.7zm1.68-4.8h1.57a1.23 1.23 0 0 0 .88-.32 1.16 1.16 0 0 0 0-1.62 1.23 1.23 0 0 0-.88-.3h-1.57v2.24zm6.18 4.8v-8.54h5.62v1.5h-3.95v2h3.37v1.48h-3.37v2.07h3.95v1.48h-5.62zm10.04 0v-8.54h1.67v8.54H89.6zm2.9-1.05l1.07-1.1a2.8 2.8 0 0 0 2.06.73 1.98 1.98 0 0 0 1.13-.27.9.9 0 0 0 .4-.8.94.94 0 0 0-.28-.7 1.4 1.4 0 0 0-.76-.3l-1.03-.16a2.96 2.96 0 0 1-1.66-.7 2.27 2.27 0 0 1-.62-1.68 2.4 2.4 0 0 1 .8-1.88 3.15 3.15 0 0 1 2.18-.7 4.65 4.65 0 0 1 1.56.22 3.33 3.33 0 0 1 1.2.76L97.5 16.1a1.85 1.85 0 0 0-.8-.47 3.58 3.58 0 0 0-.95-.12 1.4 1.4 0 0 0-.97.32 1 1 0 0 0-.34.78.8.8 0 0 0 .25.6 1.43 1.43 0 0 0 .78.35l1 .14a2.9 2.9 0 0 1 1.64.65 2.37 2.37 0 0 1 .66 1.8 2.27 2.27 0 0 1-.9 1.9 3.6 3.6 0 0 1-2.27.7 5.5 5.5 0 0 1-1.76-.25 3.43 3.43 0 0 1-1.35-.87zm10-6v-1.5h6.13v1.5h-2.24v7.05h-1.68v-7.05h-2.23zm6.95 2.9v-.12a14.78 14.78 0 0 1 .07-1.77 2.85 2.85 0 0 1 .77-1.63 3.14 3.14 0 0 1 2.3-.93 3.1 3.1 0 0 1 2.3.93 2.87 2.87 0 0 1 .35.44 2.14 2.14 0 0 1 .25.5q.1.3.14.52a3.5 3.5 0 0 1 .07.62l.03.6v1.46l-.02.62a3.54 3.54 0 0 1-.06.6c-.03.16-.08.32-.14.52a2.13 2.13 0 0 1-.25.5 2.8 2.8 0 0 1-.35.45 3.1 3.1 0 0 1-2.3.93 3.15 3.15 0 0 1-2.3-.93 2.8 2.8 0 0 1-.36-.42 2.02 2.02 0 0 1-.24-.5l-.14-.5a3.55 3.55 0 0 1-.08-.6l-.02-.58v-.7zm1.75-1.8a11.55 11.55 0 0 0-.08 1.68 11.54 11.54 0 0 0 .08 1.68 1.43 1.43 0 0 0 .33.73 1.5 1.5 0 0 0 2.15 0 1.47 1.47 0 0 0 .33-.72 10.76 10.76 0 0 0 .1-1.67 10.76 10.76 0 0 0-.1-1.65 1.47 1.47 0 0 0-.32-.74 1.5 1.5 0 0 0-2.15 0 1.43 1.43 0 0 0-.33.74zm9.05 5.95v-8.54h1.67v3.72l3-3.72h2.04l-2.84 3.4 3.04 5.14h-1.95l-2.18-3.9-1.1 1.33v2.58h-1.67zm7.97 0v-8.54h1.5l3.37 5.23v-5.23h1.66v8.54h-1.5l-3.37-5.24v5.24h-1.68zm8.24-4.15v-.12a14.78 14.78 0 0 1 .08-1.77 2.85 2.85 0 0 1 .76-1.63 3.14 3.14 0 0 1 2.32-.93 3.1 3.1 0 0 1 2.3.93 2.87 2.87 0 0 1 .35.44 2.14 2.14 0 0 1 .24.5q.1.3.15.52a3.5 3.5 0 0 1 .07.62l.03.6v1.46l-.02.62a3.54 3.54 0 0 1-.08.6c-.03.16-.08.32-.14.52a2.13 2.13 0 0 1-.23.5 2.8 2.8 0 0 1-.36.45 3.1 3.1 0 0 1-2.28.93 3.15 3.15 0 0 1-2.32-.93 2.8 2.8 0 0 1-.35-.42 2.02 2.02 0 0 1-.24-.5l-.13-.5a3.55 3.55 0 0 1-.08-.6q-.03-.36-.03-.58v-.7zm1.75-1.8a11.55 11.55 0 0 0-.07 1.68 11.54 11.54 0 0 0 .08 1.68 1.43 1.43 0 0 0 .34.73 1.5 1.5 0 0 0 2.15 0 1.47 1.47 0 0 0 .32-.72 10.76 10.76 0 0 0 .1-1.67 10.76 10.76 0 0 0-.1-1.65 1.47 1.47 0 0 0-.33-.74 1.5 1.5 0 0 0-2.16 0 1.43 1.43 0 0 0-.33.74zm5.23-2.6h1.74l1.33 5.4 1.55-5.4h1.25l1.56 5.4 1.33-5.4h1.73l-2.3 8.55h-1.38l-1.57-5.2-1.57 5.2h-1.4z"/></svg>
